<?xml version="1.0" encoding="UTF-8"?>
<svg version="1.1" xmlns="http://www.w3.org/2000/svg" width="236" height="214">
<path d="M0 0 C77.88 0 155.76 0 236 0 C236 70.62 236 141.24 236 214 C158.12 214 80.24 214 0 214 C0 143.38 0 72.76 0 0 Z " fill="#FF0000" transform="translate(0,0)"/>
<path d="M0 0 C77.88 0 155.76 0 236 0 C236 70.62 236 141.24 236 214 C158.12 214 80.24 214 0 214 C0 143.38 0 72.76 0 0 Z M18 22 C17.37351562 22.59167969 16.74703125 23.18335937 16.1015625 23.79296875 C3.97634852 36.21994145 0.63223751 52.33466364 0.76904297 69.08105469 C1.41274756 98.37267895 13.04706134 119.8512312 33.9765625 140.16796875 C38.42676298 144.39382494 43.19394659 148.19001984 48 152 C49.19473286 152.98191686 50.38731527 153.96645408 51.578125 154.953125 C58.78925796 160.91110097 66.12147029 166.62339292 73.6875 172.125 C81.43453311 177.76499544 88.81280257 183.66585329 96 190 C96.91394531 190.79148438 97.82789062 191.58296875 98.76953125 192.3984375 C105.81571997 198.58894213 112.017988 205.0287808 117 213 C120.1042533 209.90831452 123.18603682 206.79585079 126.2578125 203.671875 C141.6866112 188.03719005 141.6866112 188.03719005 149.41015625 182.02734375 C151.89815954 180.07972127 154.28275658 178.05116522 156.66967773 175.98291016 C161.55092799 171.76250386 166.51963617 167.81720842 171.8125 164.125 C183.52615468 155.94701474 194.59415926 146.7840506 205 137 C205.74378906 136.32066406 206.48757812 135.64132813 207.25390625 134.94140625 C223.59013187 119.45750544 234.20365825 98.83502836 235.30859375 76.1953125 C235.85726055 54.15273519 232.14137394 35.88978273 216.6875 19.25 C204.87074764 8.19817134 189.06595368 2.08293681 172.91479492 2.56396484 C156.81210554 3.43008719 142.606993 8.50322403 131 20 C125.30783317 26.51883841 121.13514273 33.95767734 118 42 C117.8040625 41.40574219 117.608125 40.81148437 117.40625 40.19921875 C111.65561632 24.26104006 99.98592373 13.37588433 85 6 C61.99913314 -4.39462252 34.81690258 5.26978248 18 22 Z " fill="#FFFDFD" transform="translate(0,0)"/>
</svg>
